<?xml version="1.0" encoding="utf-8"?>
<!-- Generator: Adobe Illustrator 22.1.0, SVG Export Plug-In . SVG Version: 6.00 Build 0)  -->
<svg version="1.1" id="Layer_1" xmlns="http://www.w3.org/2000/svg" xmlns:xlink="http://www.w3.org/1999/xlink" x="0px" y="0px"
	 viewBox="0 0 195 25" style="enable-background:new 0 0 195 25;" xml:space="preserve">
<style type="text/css">
	.st0{fill:#173155;}
	.st1{filter:url(#Adobe_OpacityMaskFilter);}
	.st2{fill:#FFFFFF;}
	.st3{mask:url(#mask-2_12_);fill:#173155;}
	.st4{filter:url(#Adobe_OpacityMaskFilter_1_);}
	.st5{mask:url(#mask-2_11_);fill:#173155;}
	.st6{filter:url(#Adobe_OpacityMaskFilter_2_);}
	.st7{mask:url(#mask-2_10_);fill:#173155;}
	.st8{filter:url(#Adobe_OpacityMaskFilter_3_);}
	.st9{mask:url(#mask-2_9_);fill:#173155;}
	.st10{filter:url(#Adobe_OpacityMaskFilter_4_);}
	.st11{mask:url(#mask-2_8_);fill:#173155;}
	.st12{filter:url(#Adobe_OpacityMaskFilter_5_);}
	.st13{mask:url(#mask-2_7_);fill:#173155;}
</style>
<title>logo/urbanhire/blue</title>
<desc>Created with Sketch.</desc>
<title>logo/urbanhire/blue</title>
<desc>Created with Sketch.</desc>
<g id="Page-1_1_">
	<g id="LANDING-1_1_" transform="translate(-40.000000, -28.000000)">
		<g id="logo_x2F_urbanhire_x2F_blue_x5F_firm_1_" transform="translate(40.000000, 28.000000)">
			<g id="Group_1_">
				<g id="logo_1_" transform="translate(0.021306, 0.250581)">
					<g id="Clip-14_1_">
					</g>
				</g>
			</g>
		</g>
	</g>
</g>
<title>logo/urbanhire/blue</title>
<desc>Created with Sketch.</desc>
<g id="Page-1">
	<g id="LANDING-1" transform="translate(-40.000000, -28.000000)">
		<g id="logo_x2F_urbanhire_x2F_blue_x5F_firm" transform="translate(40.000000, 28.000000)">
			<g id="Group">
				<g id="logo" transform="translate(0.021306, 0.250581)">
					<path id="Fill-3" class="st0" d="M78.9,10c0-0.7-0.2-1.2-0.6-1.5c-0.4-0.3-1.1-0.4-2-0.4H74v4h2.2c1,0,1.8-0.2,2.1-0.5
						C78.7,11.2,78.9,10.7,78.9,10z M79.4,14.2l3.4,4.8h-3.7l-3-4.3H74V19h-3V5.5h5.2c2.1,0,3.6,0.4,4.5,1.1C81.5,7.3,82,8.4,82,10
						C82,12.1,81.1,13.5,79.4,14.2z"/>
					<path id="Fill-5" class="st0" d="M91.2,16.5h2.1c0.9,0,1.5-0.1,2-0.3c0.4-0.2,0.7-0.6,0.7-1.3c0-0.6-0.2-1-0.7-1.2
						c-0.5-0.2-1.2-0.3-2.2-0.3h-1.8V16.5z M91.2,11h1.4c0.8,0,1.5-0.1,1.9-0.3c0.4-0.2,0.6-0.6,0.6-1.2c0-0.6-0.2-1-0.6-1.2
						c-0.4-0.2-1-0.3-1.9-0.3h-1.5V11z M88.1,19V5.5h5.3c0.9,0,1.7,0.1,2.4,0.3C96.5,6,97,6.3,97.3,6.7c0.6,0.7,0.9,1.5,0.9,2.4
						c0,1.1-0.3,1.8-1,2.4c-0.2,0.2-0.4,0.3-0.5,0.3c-0.1,0-0.3,0.1-0.5,0.2c0.8,0.2,1.5,0.6,2,1.1c0.5,0.6,0.8,1.3,0.8,2.1
						c0,0.9-0.3,1.8-1,2.5C97.3,18.6,96,19,94.1,19H88.1z"/>
					<path id="Fill-7" class="st0" d="M109.8,9.5l-1.7,3.9h3.4L109.8,9.5z M113.9,19l-1.3-2.9H107l-1.3,2.9h-3.2l5.9-13.5h2.9
						l5.9,13.5H113.9z"/>
					<polygon id="Fill-9" class="st0" points="131.3,5.5 134.3,5.5 134.3,19 131.3,19 124.8,10.5 124.8,19 121.7,19 121.7,5.5 
						124.6,5.5 131.3,14.2 					"/>
					<polygon id="Fill-11" class="st0" points="149,5.5 152,5.5 152,19 149,19 149,13.7 143.5,13.7 143.5,19 140.5,19 140.5,5.5 
						143.5,5.5 143.5,11.1 149,11.1 					"/>
					<g id="Clip-14">
					</g>
					<defs>
						<filter id="Adobe_OpacityMaskFilter" filterUnits="userSpaceOnUse" x="158.1" y="5.5" width="3" height="13.5">
							<feColorMatrix  type="matrix" values="1 0 0 0 0  0 1 0 0 0  0 0 1 0 0  0 0 0 1 0"/>
						</filter>
					</defs>
					<mask maskUnits="userSpaceOnUse" x="158.1" y="5.5" width="3" height="13.5" id="mask-2_12_">
						<g class="st1">
							<polygon id="path-1_12_" class="st2" points="-0.2,24.5 194.7,24.5 194.7,-0.1 -0.2,-0.1 							"/>
						</g>
					</mask>
					<polygon id="Fill-13" class="st3" points="158.1,19 161.1,19 161.1,5.5 158.1,5.5 					"/>
					<defs>
						<filter id="Adobe_OpacityMaskFilter_1_" filterUnits="userSpaceOnUse" x="167.5" y="5.5" width="11.9" height="13.5">
							<feColorMatrix  type="matrix" values="1 0 0 0 0  0 1 0 0 0  0 0 1 0 0  0 0 0 1 0"/>
						</filter>
					</defs>
					<mask maskUnits="userSpaceOnUse" x="167.5" y="5.5" width="11.9" height="13.5" id="mask-2_11_">
						<g class="st4">
							<polygon id="path-1_11_" class="st2" points="-0.2,24.5 194.7,24.5 194.7,-0.1 -0.2,-0.1 							"/>
						</g>
					</mask>
					<path id="Fill-15" class="st5" d="M175.4,10c0-0.7-0.2-1.2-0.6-1.5c-0.4-0.3-1.1-0.4-2-0.4h-2.3v4h2.2c1,0,1.7-0.2,2.1-0.5
						C175.2,11.2,175.4,10.7,175.4,10z M175.9,14.2l3.4,4.8h-3.7l-3-4.3h-2.1V19h-3V5.5h5.2c2.1,0,3.6,0.4,4.5,1.1
						c0.9,0.7,1.4,1.9,1.4,3.4C178.5,12.1,177.7,13.5,175.9,14.2z"/>
					<defs>
						<filter id="Adobe_OpacityMaskFilter_2_" filterUnits="userSpaceOnUse" x="184.7" y="5.5" width="10" height="13.5">
							<feColorMatrix  type="matrix" values="1 0 0 0 0  0 1 0 0 0  0 0 1 0 0  0 0 0 1 0"/>
						</filter>
					</defs>
					<mask maskUnits="userSpaceOnUse" x="184.7" y="5.5" width="10" height="13.5" id="mask-2_10_">
						<g class="st6">
							<polygon id="path-1_10_" class="st2" points="-0.2,24.5 194.7,24.5 194.7,-0.1 -0.2,-0.1 							"/>
						</g>
					</mask>
					<polygon id="Fill-16" class="st7" points="194.5,5.5 194.5,8.2 187.7,8.2 187.7,10.9 193.8,10.9 193.8,13.5 187.7,13.5 
						187.7,16.3 194.7,16.3 194.7,19 184.7,19 184.7,5.5 					"/>
					<defs>
						<filter id="Adobe_OpacityMaskFilter_3_" filterUnits="userSpaceOnUse" x="23.9" y="16.4" width="3.4" height="8.1">
							<feColorMatrix  type="matrix" values="1 0 0 0 0  0 1 0 0 0  0 0 1 0 0  0 0 0 1 0"/>
						</filter>
					</defs>
					<mask maskUnits="userSpaceOnUse" x="23.9" y="16.4" width="3.4" height="8.1" id="mask-2_9_">
						<g class="st8">
							<polygon id="path-1_9_" class="st2" points="-0.2,24.5 194.7,24.5 194.7,-0.1 -0.2,-0.1 							"/>
						</g>
					</mask>
					<polygon id="Fill-17" class="st9" points="27.3,23.2 23.9,24.5 23.9,16.4 27.3,17.6 					"/>
					<defs>
						<filter id="Adobe_OpacityMaskFilter_4_" filterUnits="userSpaceOnUse" x="-0.3" y="0" width="38.7" height="24.5">
							<feColorMatrix  type="matrix" values="1 0 0 0 0  0 1 0 0 0  0 0 1 0 0  0 0 0 1 0"/>
						</filter>
					</defs>
					<mask maskUnits="userSpaceOnUse" x="-0.3" y="0" width="38.7" height="24.5" id="mask-2_8_">
						<g class="st10">
							<polygon id="path-1_8_" class="st2" points="-0.2,24.5 194.7,24.5 194.7,-0.1 -0.2,-0.1 							"/>
						</g>
					</mask>
					<path id="Fill-18" class="st11" d="M15.3,24.5h7.6v-8.9h8v8.9h7.6V0H31v8.6h-8.2V0h-7.4l0,12.6c0,3.8-1.4,5.4-4.1,5.4
						c-2.6,0-4.1-1.6-4.1-5.4V0h-7.4v12.6c0,8.3,3.7,11.9,11.5,11.9H15.3z"/>
					<defs>
						<filter id="Adobe_OpacityMaskFilter_5_" filterUnits="userSpaceOnUse" x="53.3" y="5.5" width="11.7" height="13.6">
							<feColorMatrix  type="matrix" values="1 0 0 0 0  0 1 0 0 0  0 0 1 0 0  0 0 0 1 0"/>
						</filter>
					</defs>
					<mask maskUnits="userSpaceOnUse" x="53.3" y="5.5" width="11.7" height="13.6" id="mask-2_7_">
						<g class="st12">
							<polygon id="path-1_7_" class="st2" points="-0.2,24.5 194.7,24.5 194.7,-0.1 -0.2,-0.1 							"/>
						</g>
					</mask>
					<path id="Fill-1" class="st13" d="M59.1,16.5c0.9,0,1.5-0.3,2-0.9c0.5-0.6,0.7-1.5,0.7-2.6V5.5h3v7.6c0,2-0.6,3.5-1.6,4.5
						c-1.1,1-2.5,1.6-4.2,1.6c-1.7,0-3.1-0.5-4.2-1.6c-1.1-1.1-1.6-2.6-1.6-4.5V5.5h3V13c0,1.1,0.3,1.9,0.8,2.6
						C57.6,16.1,58.3,16.5,59.1,16.5z"/>
				</g>
			</g>
		</g>
	</g>
</g>
</svg>
